inDegrees=yes
name=ik_S57_A05_T02
DataType=double
version=3
OpenSimVersion=4.3-2021-08-27-4bc7ad9
endheader
time	pelvis_tilt	pelvis_list	pelvis_rotation	pelvis_tx	pelvis_ty	pelvis_tz	hip_flexion_r	hip_adduction_r	hip_rotation_r	knee_angle_r	knee_angle_r_beta	ankle_angle_r	subtalar_angle_r	mtp_angle_r	hip_flexion_l	hip_adduction_l	hip_rotation_l	knee_angle_l	knee_angle_l_beta	ankle_angle_l	subtalar_angle_l	mtp_angle_l	lumbar_extension	lumbar_bending	lumbar_rotation	arm_flex_r	arm_add_r	arm_rot_r	elbow_flex_r	pro_sup_r	wrist_flex_r	wrist_dev_r	arm_flex_l	arm_add_l	arm_rot_l	elbow_flex_l	pro_sup_l	wrist_flex_l	wrist_dev_l
14.41999999999978	-0.7986872623404476	-2.138629456263424	32.10472700220949	0	0.9399999999999999	0	27.53131117714554	-9.210320881892443	-8.209427868779041	31.62560619933564	0.551970956117537	0	0	0	27.53131117714554	-9.210320881892443	-8.209427868779041	31.62560619933564	0.551970956117537	0	0	0	-4.178885850750868	-4.961695583041311	12.1800851945184	55.67024841239623	7.430858406098291	4.356198856317884	38.8170500918344	92.91526659872177	0	0	23.38619397068283	-13.31370312987212	18.4346049491393	50.97124941278977	179.9873700319524	0	0
14.43999999999978	-0.7988719655692303	-2.18718427159889	32.28847253382943	0	0.9399999999999999	0	27.53681502726142	-9.211126395668252	-8.210609590829485	31.6310603370752	0.5520661487789497	0	0	0	27.53681502726142	-9.211126395668252	-8.210609590829485	31.6310603370752	0.5520661487789497	0	0	0	-4.21342008707231	-4.991707859231812	12.04101849284057	55.67130962210708	7.699178174575936	4.402417178622212	38.72555756468432	92.51195986945029	0	0	23.36001674645391	-13.37350617913704	18.32971717489158	51.07450269761635	179.9874049566952	0	0
14.45999999999978	-0.8086937515499186	-2.237115812280916	32.39200696549455	0	0.9399999999999999	0	27.54129665325564	-9.211766078839455	-8.211556915235832	31.6355958534841	0.5521453084735631	0	0	0	27.54129665325564	-9.211766078839455	-8.211556915235832	31.6355958534841	0.5521453084735631	0	0	0	-4.254403556898615	-5.020665683438036	11.94653486853852	55.71259785728174	7.934064392961871	4.427550158829376	38.71471971417506	92.52388115475405	0	0	23.36208944002852	-13.4346495197589	18.27258235791446	51.17275304022649	179.9874058718913	0	0
14.47999999999978	-0.8418412769059378	-2.28043406223959	32.39584291808675	0	0.9399999999999999	0	27.5494786101407	-9.212972354041034	-8.21332218029219	31.6436429648783	0.5522857570626667	0	0	0	27.5494786101407	-9.212972354041034	-8.21332218029219	31.6436429648783	0.5522857570626667	0	0	0	-4.306869957800679	-5.035648878920115	11.91025749604988	55.74181687698604	8.20967113495821	4.488942744094476	38.58017564679803	91.63806952374031	0	0	23.414869757579	-13.47126281915822	18.1991522518767	51.22701863806002	179.9874330249035	0	0
14.49999999999978	-0.8714813653183613	-2.336230183149001	32.35360896518409	0	0.9399999999999999	0	27.5564500917875	-9.213985356013211	-8.214812805244243	31.65058250119625	0.5524068748199766	0	0	0	27.5564500917875	-9.213985356013211	-8.214812805244243	31.65058250119625	0.5524068748199766	0	0	0	-4.36002364077038	-5.065705070662688	11.90915586084175	55.77070107741353	8.415595597405297	4.552235227450573	38.66136707203587	91.20553688337654	0	0	23.46052784866239	-13.49492121346939	18.11928163285589	51.29949058743008	179.9874324649454	0	0
14.51999999999978	-0.9001512223880079	-2.394831128419046	32.3464074176435	0	0.9399999999999999	0	27.56311564369376	-9.214949659120071	-8.216234272041756	31.65723854560121	0.5525230447100022	0	0	0	27.56311564369376	-9.214949659120071	-8.216234272041756	31.65723854560121	0.5525230447100022	0	0	0	-4.413811927576357	-5.10082518138039	11.92705057129842	55.78341244140412	8.530071035880399	4.647279319068883	38.82768455205144	90.6067332173472	0	0	23.5764927278427	-13.52013578447032	18.15311901249084	51.32426441712521	179.9874182332681	0	0
14.53999999999978	-0.932588156843872	-2.457109001118735	32.30170671806322	0	0.9399999999999999	0	27.56937754458131	-9.215855648167851	-8.217569903500603	31.6634871640416	0.5526321036754878	0	0	0	27.56937754458131	-9.215855648167851	-8.217569903500603	31.6634871640416	0.5526321036754878	0	0	0	-4.472590303223884	-5.135299670132125	11.92962384476485	55.8177808940614	8.684546259489725	4.730224606776328	38.97882413011776	89.89525813408223	0	0	23.6481173174974	-13.56323288496738	18.07325431730217	51.37681477517024	179.9874203001985	0	0
14.55999999999978	-0.9637934531666765	-2.503868071272787	32.26765697616425	0	0.9399999999999999	0	27.57700126725664	-9.216961440915178	-8.219198801727003	31.67107302332471	0.552764501896571	0	0	0	27.57700126725664	-9.216961440915178	-8.219198801727003	31.67107302332471	0.552764501896571	0	0	0	-4.522816412355281	-5.156306964813497	11.92041172365248	55.85331557482218	8.830139333282085	4.819808245437914	39.10396209340102	89.2401255411683	0	0	23.70548866623808	-13.58552917643605	17.95415733063916	51.4413151298992	179.9874348175103	0	0
14.57999999999978	-0.9807008126363987	-2.538772075003114	32.31079075640485	0	0.9399999999999999	0	27.584999093971	-9.218122286355236	-8.220908639967966	31.67902020186941	0.5529032063284198	0	0	0	27.584999093971	-9.218122286355236	-8.220908639967966	31.67902020186941	0.5529032063284198	0	0	0	-4.559028795465915	-5.171392511416952	11.86768899399815	55.93036351161752	9.004224157942485	4.891541524472966	39.1460112911825	88.76659538097073	0	0	23.72174398787002	-13.59115112533873	17.87507561860386	51.49834480355915	179.9874456805207	0	0
14.59999999999978	-0.9801870514505291	-2.534842218675647	32.23837631279406	0	0.9399999999999999	0	27.59327087835489	-9.219323862069423	-8.222678220339052	31.68722759013519	0.5530464522766474	0	0	0	27.59327087835489	-9.219323862069423	-8.222678220339052	31.68722759013519	0.5530464522766474	0	0	0	-4.55045433146897	-5.175432720480855	11.9405825561286	55.91548547187396	9.031344308417543	4.922084503157728	39.21440612562687	88.29652192689558	0	0	23.69810742087227	-13.56663402302833	17.78745341758294	51.5278186387982	179.9874626631611	0	0
14.61999999999978	-1.009547084959509	-2.601142698401387	32.11301137010596	0	0.9399999999999999	0	27.59780711042303	-9.2199710940431	-8.223637910080702	31.69179565219755	0.553126180000071	1.518486084176193e-35	0	0	27.59780711042303	-9.2199710940431	-8.223637910080702	31.69179565219755	0.553126180000071	1.518486084176193e-35	0	0	-4.602553288193385	-5.223987675813131	12.02543899131824	56.10191580599574	9.16104744535904	4.863474710131777	39.23189551490878	87.85295199859004	0	-1.077613842297402e-35	23.81815366802605	-13.61124805788341	17.72657002445923	51.55392674031904	179.9874766770068	0	-1.077613842297402e-35
14.63999999999978	-1.023370224428988	-2.618350477826401	31.97044689770075	0	0.9399999999999999	0	27.60155693288717	-9.220505210680995	-8.22443044952405	31.69557564705934	0.5531921533561176	0	0	0	27.60155693288717	-9.220505210680995	-8.22443044952405	31.69557564705934	0.5531921533561176	0	0	0	-4.614142465283896	-5.244486994753741	12.15446722766031	56.19286921449806	9.185757919471504	4.839531176852183	39.21800397340554	87.65296885635274	0	0	23.91075565644298	-13.58928250607008	17.71294482851864	51.53367670607564	179.9874817099865	0	0
14.65999999999978	-1.049448706559989	-2.625503805718538	31.84658242678985	0	0.9399999999999999	0	27.60512738318026	-9.221011581704026	-8.225183089438923	31.6991867624734	0.5532551792097625	0	0	0	27.60512738318026	-9.221011581704026	-8.225183089438923	31.6991867624734	0.5532551792097625	0	0	0	-4.629712734152243	-5.254339297827143	12.32354039612235	56.314332052259	9.066218507223223	4.823118344542713	39.18578717999078	87.56923211291203	0	4.788723134937152e-36	23.98900743122707	-13.53704170623045	17.75770166422411	51.52996509992123	179.9875025886636	0	4.788723134937152e-36
14.67999999999978	-1.086394468941046	-2.613874348391097	31.65021267569806	0	0.9399999999999999	0	27.61177716638048	-9.22198547702215	-8.226613624978512	31.70572423893644	0.5533692796988142	0	0	0	27.61177716638048	-9.22198547702215	-8.226613624978512	31.70572423893644	0.5533692796988142	0	0	0	-4.646579140867896	-5.241685608452304	12.47991123640188	56.42262360267644	8.880580913837745	4.836364419281835	39.0989469263094	88.07648193820573	0	0	24.02607852580134	-13.45503757846065	17.70352422587512	51.43984729084509	179.9875120998993	0	0
14.69999999999978	-1.082880771173897	-2.608713769503248	31.46178902307378	0	0.9399999999999999	0	27.61501766913912	-9.222455197791277	-8.227306310394441	31.70893706176064	0.5534253540353796	0	0	0	27.61501766913912	-9.222455197791277	-8.227306310394441	31.70893706176064	0.5534253540353796	0	0	0	-4.632965660285262	-5.252283694368789	12.60610437098585	56.45610123220256	8.737249479280951	4.765016542126747	39.12874186642065	88.05679820182634	0	0	23.99488946295312	-13.46884602865348	17.65324469877052	51.45962328883688	179.9875041636153	0	0
14.71999999999978	-1.089196268555943	-2.584957336712195	31.26303560198224	0	0.9399999999999999	0	27.61798132312866	-9.222886544268501	-8.227941503128891	31.71186368847842	0.5534764333075818	0	0	0	27.61798132312866	-9.222886544268501	-8.227941503128891	31.71186368847842	0.5534764333075818	0	0	0	-4.619995222189035	-5.239128367690543	12.70898390348467	56.4540771767283	8.542250451194045	4.733277165133191	39.13883182194913	88.16991360833495	0	0	23.92553004247565	-13.45585180555123	17.60861889397238	51.45165837884655	179.9874906134998	0	0
14.73999999999977	-1.096035929862374	-2.522283114308709	31.06559987870501	0	0.9399999999999999	0	27.62666495372441	-9.224170345429705	-8.229821354520338	31.72031553537573	0.5536239458638142	0	0	0	27.62666495372441	-9.224170345429705	-8.229821354520338	31.72031553537573	0.5536239458638142	0	0	0	-4.588002867501825	-5.189901400629714	12.7943254546456	56.41721959332132	8.30116415222796	4.647353367776864	39.12124427581942	88.63490630994075	0	0	23.80592082598506	-13.37575340854284	17.56440112634225	51.35107163713512	179.9874822608142	0	0
14.75999999999977	-1.094111077259284	-2.476411526226686	30.87256280374089	0	0.9399999999999999	0	27.63000439247886	-9.224659089462907	-8.230539794187457	31.72359284059755	0.5536811456305278	2.076289336421846e-50	0	0	27.63000439247886	-9.224659089462907	-8.230539794187457	31.72359284059755	0.5536811456305278	2.076289336421846e-50	0	0	-4.557734906738229	-5.159631385548934	12.87596096773478	56.44105589043753	8.065395223253097	4.441275935184752	39.0938956732356	88.79339285948996	0	0	23.71755351597985	-13.36264921193044	17.44800409487322	51.37300240355101	179.9874965605084	0	0
14.77999999999977	-1.095331345449002	-2.405105159561692	30.65235008719355	0	0.9399999999999999	0	27.63583011146149	-9.22551859891168	-8.231799629657647	31.72926673528602	0.5537801737742531	0	0	0	27.63583011146149	-9.22551859891168	-8.231799629657647	31.72926673528602	0.5537801737742531	0	0	0	-4.518813646229323	-5.101280599064697	12.91866372440673	56.44056992568684	7.834917366770531	4.255246489731391	39.08694372812434	89.01585849763336	0	0	23.55912635276036	-13.31838604565587	17.3781268161461	51.34693428736192	179.9874717213669	0	0
14.79999999999977	-1.088602902639113	-2.242936599668409	30.35291238444613	0	0.9399999999999999	0	27.64256856644992	-9.226513546261	-8.233257754007665	31.73582092541188	0.5538945659717511	0	0	0	27.64256856644992	-9.226513546261	-8.233257754007665	31.73582092541188	0.5538945659717511	0	0	0	-4.430151033001566	-4.961497790508484	12.89482391328988	56.27828226286077	7.616231901842855	4.232137419373429	39.13353794444653	89.23347518337602	0	0	23.21316261976276	-13.2001547835676	17.11163956227951	51.31413128100952	179.9874257397049	0	0
14.81999999999977	-1.074649620879502	-2.175266959172816	30.10561406884993	0	0.9399999999999999	0	27.64514886870931	-9.226891181516068	-8.233813072075456	31.73834883392625	0.5539386862985159	0	0	0	27.64514886870931	-9.226891181516068	-8.233813072075456	31.73834883392625	0.5539386862985159	0	0	0	-4.381902398827664	-4.911536063799196	12.91548752269583	56.29374572758538	7.377276856216219	3.961665116700277	39.18899805639938	89.237046528148	0	0	23.0007166930726	-13.1748952144312	16.96209700565435	51.30702524962331	179.9873958588621	0	0
14.83999999999977	-1.067157993068591	-2.150564551575603	29.9642955351559	0	0.9399999999999999	0	27.65050013448682	-9.227678657319913	-8.234968789201771	31.7435646444546	0.554029719365396	0	0	0	27.65050013448682	-9.227678657319913	-8.234968789201771	31.7435646444546	0.554029719365396	0	0	0	-4.3554652580789	-4.907770711281794	13.06931574726903	56.42714182276237	6.824152616413273	3.321181559544796	39.37540530781201	89.22915586849777	0	0	22.72994941113628	-13.08598604560287	16.9729094830421	51.41113585999567	179.9874161932589	0	0
